<svg width="33" height="33" viewBox="0 0 33 33" fill="none" xmlns="http://www.w3.org/2000/svg">
<path d="M3.44354 31.535C3.01348 31.535 2.58343 31.3808 2.15336 31.1495C1.36491 30.6869 0.863159 29.7617 0.863159 28.7594V4.24066C0.863159 3.23833 1.36491 2.31309 2.15336 1.85047C2.94181 1.38786 3.94528 1.38786 4.73373 1.85047L24.5166 14.1098C25.3051 14.5724 25.8068 15.4977 25.8068 16.5C25.8068 17.5023 25.3051 18.4276 24.5166 18.8902L4.73373 31.1495C4.30366 31.3808 3.87361 31.535 3.44354 31.535ZM3.44354 3.00701C3.22851 3.00701 3.08517 3.08413 2.87013 3.16123C2.51175 3.39254 2.2967 3.77805 2.2967 4.24066V28.7594C2.2967 29.222 2.51175 29.6075 2.87013 29.8388C3.22852 30.0701 3.65857 30.0701 4.01695 29.8388L23.7999 17.5795C24.1583 17.3481 24.3733 16.9626 24.3733 16.5C24.3733 16.0374 24.1583 15.6519 23.7999 15.4206L4.01695 3.16123C3.80192 3.08413 3.5869 3.00701 3.44354 3.00701Z" fill="white"/>
<path d="M30.8242 33H28.3155C27.312 33 26.4519 32.0748 26.4519 30.9953V2.00468C26.4519 0.925238 27.312 0 28.3155 0H30.8242C31.8277 0 32.6878 0.925238 32.6878 2.00468V30.9953C32.6161 32.0748 31.8277 33 30.8242 33ZM28.3155 1.54206C28.1005 1.54206 27.8854 1.77337 27.8854 2.00468V30.9953C27.8854 31.2266 28.1005 31.4579 28.3155 31.4579H30.8242C31.0393 31.4579 31.2543 31.2266 31.2543 30.9953V2.00468C31.2543 1.77337 31.0393 1.54206 30.8242 1.54206H28.3155Z" fill="white"/>
</svg>
