<svg width="88" height="89" viewBox="0 0 88 89" fill="none" xmlns="http://www.w3.org/2000/svg">
<path d="M43.9122 88.0362C68.1643 88.0362 87.8244 68.3286 87.8244 44.0181C87.8244 19.7076 68.1643 0 43.9122 0C19.6602 0 0 19.7076 0 44.0181C0 68.3286 19.6602 88.0362 43.9122 88.0362Z" fill="#F41B3B"/>
<path d="M61.31 40.9075L37.5242 27.1518C36.4264 26.4182 34.9627 26.4182 33.8648 27.1518C32.767 27.8855 32.0352 28.9859 32.0352 30.2697V57.5976C32.0352 58.8815 32.767 60.1653 33.8648 60.7156C34.4138 61.0823 35.1456 61.2657 35.6945 61.2657C36.2435 61.2657 36.9753 61.0823 37.5242 60.7156L61.127 46.9599C62.2249 46.2263 62.9567 45.1258 62.9567 43.8419C62.9567 42.5581 62.4078 41.4577 61.31 40.9075Z" fill="white" fill-opacity="0.87"/>
</svg>
